<?xml version="1.0" encoding="utf-8"?>
<!-- Generator: Adobe Illustrator 23.0.1, SVG Export Plug-In . SVG Version: 6.00 Build 0)  -->
<svg version="1.1" id="Layer_1" xmlns="http://www.w3.org/2000/svg" xmlns:xlink="http://www.w3.org/1999/xlink" x="0px" y="0px"
	 viewBox="0 0 51.4 50.8" style="enable-background:new 0 0 51.4 50.8;" xml:space="preserve">
<style type="text/css">
	.st0{fill-rule:evenodd;clip-rule:evenodd;fill:#B0ACAD;}
</style>
<g id="Group_2_copy">
	<path id="P" class="st0" d="M32.6,33.6V15.9l3.1,0.2c3.6,0,6.1,0.8,7.7,2.4c3.1,3.8,3.1,9.2,0,13c-1.6,1.6-4.1,2.4-7.7,2.4
		L32.6,33.6z M26.9,50.8l5.7-5.1v-7l3.3,0c2.3,0,4.5-0.3,6.6-1c1.8-0.6,3.5-1.5,4.9-2.8c1.3-1.2,2.4-2.7,3-4.3
		c0.7-1.8,1.1-3.8,1-5.7c0-1.9-0.3-3.9-1-5.7c-0.6-1.7-1.7-3.2-3-4.4c-1.4-1.2-3.1-2.2-4.9-2.8c-2.1-0.7-4.4-1-6.6-1h-3.3
		c0-0.3,0-0.6,0-1h-5.7L26.9,50.8L26.9,50.8z"/>
	<path class="st0" d="M19.2,8.2V0l4.3,5.4l2.3-5.4l2.3,5.4l4.4-5.4v8.2L19.2,8.2z"/>
	<path id="P-2" class="st0" d="M19.2,33.6V15.9h-3.2c-3.6,0-6.4,1-8,2.5c-3.1,3.8-3.1,9.2,0,13c1.6,1.6,4.1,2.4,7.7,2.4L19.2,33.6z
		 M24.9,43.8l-5.7-4.4v-0.6l-3.7,0c-2.3,0-4.5-0.3-6.6-1C7.1,37.1,5.5,36.2,4,35c-1.3-1.2-2.4-2.7-3-4.4c-0.7-1.8-1.1-3.8-1-5.7
		c0-2,0.3-3.9,1-5.7c0.6-1.7,1.7-3.2,3-4.3c1.4-1.2,3.1-2.2,4.9-2.8c2.1-0.7,4.4-1,6.6-1h3.7c0,0,0-0.9,0-0.9H25L24.9,43.8
		L24.9,43.8z"/>
</g>
</svg>
